<svg width="36" height="36" viewBox="0 0 36 36" fill="none" xmlns="http://www.w3.org/2000/svg">
<path d="M17.9929 3.2435C22.8 3.2435 23.3643 3.26493 25.2643 3.35066C27.0214 3.42925 27.9714 3.72217 28.6071 3.97222C29.45 4.30085 30.05 4.68664 30.6786 5.31534C31.3071 5.94404 31.7 6.54416 32.0214 7.38718C32.2643 8.02302 32.5643 8.97321 32.6429 10.7307C32.7286 12.6311 32.75 13.1955 32.75 18.0036C32.75 22.8117 32.7286 23.3761 32.6429 25.2764C32.5643 27.0339 32.2714 27.9841 32.0214 28.62C31.6929 29.463 31.3071 30.0631 30.6786 30.6918C30.05 31.3205 29.45 31.7134 28.6071 32.0349C27.9714 32.2778 27.0214 32.5779 25.2643 32.6565C23.3643 32.7422 22.8 32.7636 17.9929 32.7636C13.1857 32.7636 12.6214 32.7422 10.7214 32.6565C8.96429 32.5779 8.01429 32.285 7.37857 32.0349C6.53571 31.7063 5.93571 31.3205 5.30714 30.6918C4.67857 30.0631 4.28571 29.463 3.96429 28.62C3.72143 27.9841 3.42143 27.0339 3.34286 25.2764C3.25714 23.3761 3.23571 22.8117 3.23571 18.0036C3.23571 13.1955 3.25714 12.6311 3.34286 10.7307C3.42143 8.97321 3.71429 8.02302 3.96429 7.38718C4.29286 6.54416 4.67857 5.94404 5.30714 5.31534C5.93571 4.68664 6.53571 4.29371 7.37857 3.97222C8.01429 3.72931 8.96429 3.42925 10.7214 3.35066C12.6214 3.25779 13.1857 3.2435 17.9929 3.2435ZM17.9929 0C13.1071 0 12.4929 0.0214328 10.5714 0.107164C8.65714 0.192895 7.35 0.500099 6.20714 0.943044C5.02143 1.40028 4.02143 2.02183 3.02143 3.02203C2.02143 4.02223 1.40714 5.02957 0.942857 6.20837C0.5 7.35146 0.192857 8.65886 0.107143 10.5807C0.0214286 12.4953 0 13.1097 0 17.9964C0 22.8831 0.0214286 23.4975 0.107143 25.4193C0.192857 27.334 0.5 28.6414 0.942857 29.7916C1.4 30.9776 2.02143 31.9778 3.02143 32.978C4.02143 33.9782 5.02857 34.5926 6.20714 35.057C7.35 35.4999 8.65714 35.8071 10.5786 35.8928C12.5 35.9786 13.1071 36 18 36C22.8929 36 23.5 35.9786 25.4214 35.8928C27.3357 35.8071 28.6429 35.4999 29.7929 35.057C30.9786 34.5997 31.9786 33.9782 32.9786 32.978C33.9786 31.9778 34.5929 30.9704 35.0571 29.7916C35.5 28.6485 35.8071 27.3411 35.8929 25.4193C35.9786 23.4975 36 22.8903 36 17.9964C36 13.1026 35.9786 12.4953 35.8929 10.5735C35.8071 8.65886 35.5 7.35146 35.0571 6.20123C34.6 5.01528 33.9786 4.01508 32.9786 3.01488C31.9786 2.01469 30.9714 1.40028 29.7929 0.9359C28.65 0.492955 27.3429 0.185751 25.4214 0.10002C23.4929 0.0214328 22.8786 0 17.9929 0Z" fill="white"/>
<path d="M17.9929 8.75171C12.8929 8.75171 8.75 12.8882 8.75 17.9964C8.75 23.1046 12.8929 27.2411 17.9929 27.2411C23.0929 27.2411 27.2357 23.0974 27.2357 17.9964C27.2357 12.8954 23.0929 8.75171 17.9929 8.75171ZM17.9929 23.9976C14.6786 23.9976 11.9929 21.3113 11.9929 17.9964C11.9929 14.6815 14.6786 11.9952 17.9929 11.9952C21.3071 11.9952 23.9929 14.6815 23.9929 17.9964C23.9929 21.3113 21.3071 23.9976 17.9929 23.9976Z" fill="white"/>
<path d="M27.6 10.5451C28.7914 10.5451 29.7572 9.57914 29.7572 8.38755C29.7572 7.19596 28.7914 6.22998 27.6 6.22998C26.4087 6.22998 25.4429 7.19596 25.4429 8.38755C25.4429 9.57914 26.4087 10.5451 27.6 10.5451Z" fill="white"/>
</svg>
